<svg width="400" height="232" viewBox="0 0 400 232" fill="none" xmlns="http://www.w3.org/2000/svg">
<path d="M141.72 135.971C153.219 115.743 175.153 100.212 198.372 101.708C181.245 120.333 171.258 144.416 170.178 169.695C169.797 179.446 170.388 190.331 163.914 197.632C159.885 202.175 153.728 204.376 147.674 204.837C141.619 205.299 135.566 204.205 129.593 203.116L128.144 203.56C127.592 180.299 130.222 156.198 141.72 135.971Z" fill="#D2D2D2"/>
<path d="M198.405 102.195C181.235 110.461 166.594 124.265 157.607 141.101C155.664 144.741 154.009 148.603 153.288 152.686C152.566 156.77 153.07 160.658 154.465 164.538C155.741 168.085 157.456 171.565 157.847 175.36C158.259 179.36 156.788 183.1 154.138 186.068C150.897 189.7 146.543 191.951 142.21 194.004C137.398 196.283 132.364 198.575 128.957 202.829C128.544 203.344 127.768 202.673 128.18 202.159C134.11 194.757 144.259 193.366 151.297 187.404C154.581 184.621 157.047 180.833 156.891 176.394C156.755 172.512 154.989 168.921 153.667 165.341C152.278 161.582 151.586 157.803 152.084 153.795C152.593 149.695 154.1 145.761 155.941 142.088C160.094 133.803 165.778 126.197 172.289 119.622C179.772 112.064 188.492 105.842 198.073 101.225C198.666 100.939 198.995 101.911 198.405 102.195Z" fill="white"/>
<path d="M160.237 135.475C157.605 133.55 155.742 130.752 154.982 127.581C154.222 124.41 154.614 121.072 156.088 118.164C156.389 117.576 157.316 118.015 157.015 118.603C155.638 121.309 155.273 124.419 155.986 127.37C156.7 130.322 158.445 132.921 160.907 134.699C161.441 135.085 160.768 135.86 160.237 135.475Z" fill="white"/>
<path d="M153.582 162.824C160.178 161.861 166.168 158.446 170.358 153.262C170.773 152.748 171.548 153.419 171.134 153.932C166.764 159.319 160.523 162.859 153.657 163.847C153.002 163.941 152.931 162.918 153.582 162.824Z" fill="white"/>
<path d="M180.277 113.326C181.141 114.283 182.228 115.01 183.442 115.443C184.656 115.876 185.958 116 187.232 115.805C187.885 115.703 187.956 116.727 187.308 116.828C185.899 117.037 184.461 116.898 183.118 116.422C181.776 115.947 180.571 115.151 179.607 114.102C179.508 114.011 179.448 113.885 179.438 113.751C179.428 113.617 179.469 113.484 179.554 113.379C179.643 113.276 179.769 113.213 179.905 113.204C180.04 113.194 180.174 113.237 180.277 113.326Z" fill="white"/>
<path d="M244.571 165.518C244.165 165.594 243.759 165.669 243.349 165.752C237.897 166.792 232.539 168.273 227.326 170.181C226.921 170.322 226.512 170.471 226.112 170.624C213.604 175.354 202.082 182.365 192.133 191.302C188.178 194.861 184.499 198.717 181.128 202.834C176.473 208.521 171.879 215.058 165.796 218.766C165.166 219.16 164.512 219.514 163.838 219.828L128.798 205.294C128.735 205.221 128.668 205.155 128.605 205.082L127.179 204.566C127.338 204.341 127.508 204.112 127.667 203.887C127.759 203.757 127.858 203.629 127.95 203.499C128.014 203.413 128.078 203.327 128.13 203.246C128.151 203.217 128.173 203.188 128.19 203.167C128.243 203.086 128.3 203.016 128.349 202.943C129.295 201.658 130.251 200.377 131.217 199.101C131.221 199.093 131.221 199.093 131.232 199.088C138.622 189.382 146.887 180.208 156.282 172.58C156.565 172.35 156.85 172.113 157.149 171.89C161.403 168.475 165.929 165.414 170.681 162.736C173.289 161.278 175.968 159.954 178.709 158.767C185.797 155.714 193.322 153.795 201.007 153.08C216.326 151.657 231.931 155.15 243.68 164.774C243.981 165.021 244.274 165.264 244.571 165.518Z" fill="#D2D2D2"/>
<path d="M244.307 165.931C225.621 162.193 205.62 164.4 188.307 172.432C184.564 174.168 180.919 176.255 177.884 179.081C174.849 181.907 172.91 185.316 171.689 189.253C170.572 192.853 169.846 196.664 167.873 199.93C165.794 203.372 162.367 205.472 158.465 206.247C153.69 207.195 148.859 206.371 144.163 205.401C138.949 204.325 133.55 203.123 128.268 204.468C127.628 204.631 127.412 203.629 128.051 203.466C137.242 201.126 146.183 206.126 155.392 205.603C159.689 205.358 163.939 203.818 166.488 200.18C168.716 196.998 169.468 193.068 170.567 189.414C171.722 185.576 173.445 182.142 176.255 179.242C179.13 176.275 182.702 174.041 186.384 172.217C194.688 168.102 203.805 165.451 212.963 164.121C223.488 162.592 234.197 162.874 244.626 164.956C245.272 165.085 244.948 166.059 244.307 165.931Z" fill="white"/>
<path d="M193.798 169.525C192.855 166.403 193.052 163.048 194.355 160.059C195.657 157.069 197.98 154.64 200.908 153.205C201.502 152.917 201.978 153.825 201.383 154.114C198.654 155.445 196.491 157.708 195.284 160.494C194.077 163.281 193.905 166.407 194.8 169.308C194.994 169.939 193.991 170.152 193.798 169.525Z" fill="white"/>
<path d="M172.015 187.353C177.861 190.555 184.7 191.435 191.167 189.818C191.807 189.658 192.023 190.66 191.383 190.821C184.65 192.49 177.536 191.56 171.459 188.215C170.88 187.895 171.439 187.035 172.015 187.353Z" fill="white"/>
<path d="M223.131 163.904C223.244 165.188 223.674 166.423 224.383 167.5C225.092 168.576 226.057 169.46 227.191 170.071C227.774 170.383 227.214 171.243 226.635 170.933C225.385 170.252 224.321 169.275 223.535 168.087C222.749 166.899 222.266 165.537 222.128 164.12C222.104 163.988 222.131 163.851 222.204 163.738C222.277 163.625 222.391 163.543 222.521 163.511C222.654 163.483 222.793 163.508 222.907 163.582C223.021 163.656 223.102 163.771 223.131 163.904Z" fill="white"/>
<path d="M95.405 130.944C109.121 130.944 120.24 119.825 120.24 106.109C120.24 92.393 109.121 81.2739 95.405 81.2739C81.6889 81.2739 70.5698 92.393 70.5698 106.109C70.5698 119.825 81.6889 130.944 95.405 130.944Z" fill="#FFD0D7"/>
<path d="M89.0513 129.728C88.9452 129.494 88.8394 129.26 88.7339 129.025C88.7746 129.026 88.8148 129.032 88.8555 129.033L89.0513 129.728Z" fill="#2F2E41"/>
<path d="M69.882 82.4026C71.1381 81.4006 72.6062 80.4787 74.2122 80.5305C75.8181 80.5822 77.4466 82.0327 77.1139 83.6047C80.0637 78.3818 84.7589 74.3648 90.3754 72.2588C95.9918 70.1528 102.171 70.0923 107.827 72.088C111.819 73.4962 115.733 76.3135 116.65 80.4456C116.885 81.5063 116.936 82.6693 117.598 83.5307C118.433 84.6166 120.031 84.8623 121.346 84.4803C121.359 84.4765 121.373 84.4726 121.386 84.4687C121.608 84.3928 121.848 84.3853 122.074 84.4473C122.301 84.5092 122.504 84.6377 122.656 84.8161C122.809 84.9945 122.905 85.2146 122.931 85.448C122.957 85.6814 122.913 85.9173 122.804 86.1251L121.674 88.2314C123.098 88.5487 124.577 88.5173 125.986 88.1397C126.22 88.0783 126.467 88.0909 126.694 88.1756C126.921 88.2603 127.115 88.4131 127.252 88.6129C127.388 88.8128 127.459 89.0499 127.456 89.2919C127.452 89.5338 127.373 89.7686 127.231 89.9642C123.507 95.077 117.285 98.3786 110.936 98.3398C106.424 98.3123 101.865 96.7571 97.4735 97.7948C95.7746 98.1962 94.187 98.9729 92.8274 100.068C91.4678 101.163 90.3706 102.548 89.6163 104.123C88.862 105.697 88.4697 107.42 88.4683 109.166C88.4668 110.912 88.8562 112.636 89.6079 114.211C88.2588 112.736 85.6508 113.085 84.2708 114.532C82.8908 115.979 82.5335 118.138 82.6726 120.133C82.8852 123.184 84.0805 126.058 85.3405 128.856C74.7759 128.523 64.7836 121.112 61.4201 111.089C58.0426 101.024 61.5824 89.0236 69.882 82.4026Z" fill="#2F2E41"/>
<path d="M152.766 182.311C148.877 163.512 144.017 157.244 144.017 157.244L142.161 155.804L139.928 154.07L139.939 153.847L139.409 153.667L139.285 153.57L139.081 153.414L139.048 153.449L138.979 153.52L128.875 150.086L116.057 145.732L110.121 138.017C109.154 136.76 107.91 135.745 106.485 135.05C105.06 134.355 103.493 133.999 101.908 134.011L82.9513 134.151C80.3881 134.17 77.9248 135.147 76.0455 136.89L63.5856 148.448L44.1705 157.72L44.1378 157.688L43.9339 157.833L40.9341 159.268L41.0579 159.912L39.2012 161.252C39.2012 161.252 34.3411 167.084 30.453 184.577C29.4639 189.028 28.977 198.576 28.8013 210.341C28.7924 210.936 28.902 211.527 29.1237 212.08C29.3453 212.632 29.6745 213.135 30.0922 213.559C30.5099 213.983 31.0078 214.32 31.5568 214.55C32.1058 214.78 32.6951 214.898 33.2904 214.899H136.99L149.933 214.899C150.528 214.898 151.117 214.78 151.665 214.55C152.214 214.321 152.712 213.984 153.129 213.561C153.547 213.137 153.876 212.635 154.098 212.083C154.32 211.531 154.43 210.941 154.422 210.346C154.25 197.543 153.764 187.138 152.766 182.311Z" fill="#555555"/>
<path opacity="0.2" d="M53.2458 176.635L60.2115 214.534L64.3911 214.898L53.2458 176.635Z" fill="black"/>
<path opacity="0.2" d="M129.973 173.777L123.007 214.507L118.827 214.898L129.973 173.777Z" fill="black"/>
<path d="M70.1904 45.4121C68.1722 46.2548 66.0663 45.3312 65.1831 43.2162C64.2864 41.0688 65.1239 38.8889 67.1744 38.0327C69.2252 37.1764 71.2936 38.1022 72.2047 40.2842C73.1022 42.4335 72.2738 44.5421 70.1904 45.4121ZM66.3244 33.8059L64.7197 34.476C64.3188 34.6414 63.8704 34.6503 63.4633 34.501C63.0562 34.3516 62.7199 34.0549 62.521 33.6696L62.4417 33.5143C60.715 30.4004 60.5173 26.6159 61.8572 22.2718C63.0984 18.3749 63.6139 15.6343 62.5771 13.1514C61.3784 10.2807 58.8188 9.38145 55.5547 10.6841C54.2887 11.2127 53.8858 11.2043 52.8895 12.1926C52.6728 12.4102 52.4145 12.582 52.13 12.6976C51.8455 12.8132 51.5406 12.8703 51.2335 12.8656C50.9367 12.8621 50.6436 12.7988 50.3717 12.6796C50.0998 12.5604 49.8547 12.3877 49.6511 12.1717C49.2587 11.7555 49.0388 11.2059 49.0359 10.6339C49.033 10.0618 49.2473 9.51004 49.6355 9.08989C51.3101 7.33695 53.3298 5.95015 55.5673 5.017C62.5805 2.08851 66.111 6.412 67.7266 10.2811C69.3069 14.0656 68.418 17.5769 66.9897 22.1244C65.7928 25.9031 65.8625 28.7031 67.2221 31.4871C67.3203 31.6976 67.3749 31.9257 67.3827 32.1578C67.3904 32.3899 67.3512 32.6212 67.2674 32.8378C67.1835 33.0544 67.0568 33.2518 66.8947 33.4181C66.7327 33.5845 66.5387 33.7164 66.3244 33.8059Z" fill="#414141"/>
<path d="M193.055 35.585C186.958 35.585 181.111 38.0068 176.8 42.3177C172.489 46.6287 170.068 52.4755 170.068 58.5721C170.068 64.6687 172.489 70.5155 176.8 74.8265C181.111 79.1374 186.958 81.5592 193.055 81.5592H364.364C370.46 81.5592 376.307 79.1374 380.618 74.8265C384.929 70.5155 387.351 64.6687 387.351 58.5721C387.351 52.4755 384.929 46.6287 380.618 42.3177C376.307 38.0068 370.46 35.585 364.364 35.585H193.055Z" fill="#B7B7B7"/>
<path d="M193.056 40.2368C188.193 40.2368 183.53 42.1685 180.091 45.607C176.653 49.0455 174.721 53.7091 174.721 58.5718C174.721 63.4346 176.653 68.0981 180.091 71.5366C183.53 74.9751 188.193 76.9068 193.056 76.9068H364.365C369.228 76.9068 373.891 74.9751 377.33 71.5366C380.768 68.0981 382.7 63.4346 382.7 58.5718C382.7 53.7091 380.768 49.0455 377.33 45.607C373.891 42.1685 369.228 40.2368 364.365 40.2368H193.056Z" fill="white"/>
<path d="M230.896 69.5355H196.812C196.704 69.5362 196.596 69.5156 196.496 69.4746C196.396 69.4337 196.305 69.3734 196.228 69.297C196.151 69.2207 196.09 69.13 196.048 69.03C196.007 68.93 195.985 68.8228 195.985 68.7145C195.985 68.6063 196.007 68.499 196.048 68.3991C196.09 68.2991 196.151 68.2084 196.228 68.132C196.305 68.0557 196.396 67.9954 196.496 67.9545C196.596 67.9135 196.704 67.8928 196.812 67.8936H230.896C231.113 67.895 231.32 67.9822 231.473 68.136C231.626 68.2898 231.711 68.4978 231.711 68.7145C231.711 68.9313 231.626 69.1393 231.473 69.2931C231.32 69.4469 231.113 69.534 230.896 69.5355Z" fill="#414141"/>
<path d="M274.131 69.8092H240.047C239.939 69.8099 239.832 69.7893 239.731 69.7483C239.631 69.7074 239.54 69.647 239.463 69.5707C239.386 69.4944 239.325 69.4037 239.284 69.3037C239.242 69.2037 239.221 69.0965 239.221 68.9882C239.221 68.8799 239.242 68.7727 239.284 68.6728C239.325 68.5728 239.386 68.482 239.463 68.4057C239.54 68.3294 239.631 68.2691 239.731 68.2281C239.832 68.1872 239.939 68.1665 240.047 68.1673H274.131C274.24 68.1665 274.347 68.1872 274.447 68.2281C274.548 68.2691 274.639 68.3294 274.716 68.4057C274.792 68.482 274.853 68.5728 274.895 68.6728C274.937 68.7727 274.958 68.8799 274.958 68.9882C274.958 69.0965 274.937 69.2037 274.895 69.3037C274.853 69.4037 274.792 69.4944 274.716 69.5707C274.639 69.647 274.548 69.7074 274.447 69.7483C274.347 69.7893 274.24 69.8099 274.131 69.8092Z" fill="#414141"/>
<path d="M317.371 70.0821H283.287C283.07 70.0807 282.863 69.9935 282.71 69.8397C282.557 69.6859 282.471 69.4779 282.471 69.2612C282.471 69.0444 282.557 68.8364 282.71 68.6826C282.863 68.5288 283.07 68.4417 283.287 68.4402H317.371C317.479 68.4395 317.587 68.4602 317.687 68.5011C317.787 68.542 317.878 68.6024 317.955 68.6787C318.032 68.755 318.093 68.8457 318.134 68.9457C318.176 69.0457 318.198 69.1529 318.198 69.2612C318.198 69.3695 318.176 69.4767 318.134 69.5766C318.093 69.6766 318.032 69.7674 317.955 69.8437C317.878 69.92 317.787 69.9803 317.687 70.0213C317.587 70.0622 317.479 70.0829 317.371 70.0821Z" fill="#414141"/>
<path d="M360.607 70.3563H326.522C326.306 70.3548 326.098 70.2677 325.946 70.1139C325.793 69.9601 325.707 69.7521 325.707 69.5353C325.707 69.3185 325.793 69.1106 325.946 68.9568C326.098 68.803 326.306 68.7158 326.522 68.7144H360.607C360.823 68.7158 361.031 68.803 361.183 68.9568C361.336 69.1106 361.422 69.3185 361.422 69.5353C361.422 69.7521 361.336 69.9601 361.183 70.1139C361.031 70.2677 360.823 70.3548 360.607 70.3563Z" fill="#414141"/>
<path d="M213.778 61.9799C217.277 61.9799 220.113 59.1437 220.113 55.6451C220.113 52.1465 217.277 49.3103 213.778 49.3103C210.28 49.3103 207.444 52.1465 207.444 55.6451C207.444 59.1437 210.28 61.9799 213.778 61.9799Z" fill="#414141"/>
<path d="M257.277 61.9799C260.776 61.9799 263.612 59.1437 263.612 55.6451C263.612 52.1465 260.776 49.3103 257.277 49.3103C253.779 49.3103 250.942 52.1465 250.942 55.6451C250.942 59.1437 253.779 61.9799 257.277 61.9799Z" fill="#414141"/>
<path d="M300.773 61.9799C304.272 61.9799 307.108 59.1437 307.108 55.6451C307.108 52.1465 304.272 49.3103 300.773 49.3103C297.274 49.3103 294.438 52.1465 294.438 55.6451C294.438 59.1437 297.274 61.9799 300.773 61.9799Z" fill="#414141"/>
<path d="M344.275 61.9799C347.774 61.9799 350.61 59.1437 350.61 55.6451C350.61 52.1465 347.774 49.3103 344.275 49.3103C340.777 49.3103 337.94 52.1465 337.94 55.6451C337.94 59.1437 340.777 61.9799 344.275 61.9799Z" fill="#414141"/>
</svg>
