<svg width="184" height="136" viewBox="0 0 184 136" fill="none" xmlns="http://www.w3.org/2000/svg">
<path d="M183.287 27.4638C183.277 25.8858 182.708 24.3624 181.682 23.1636C180.656 21.9649 179.238 21.1683 177.681 20.9151L81.8549 5.17939C80.936 5.02727 79.9955 5.06905 79.0937 5.30208L56.6363 11.1089L43.751 14.4445L19.9717 20.5916C18.5362 20.9644 17.2651 21.8031 16.3575 22.9761C15.45 24.1492 14.9574 25.5902 14.957 27.0733V127.485C14.9642 129.016 15.4931 130.498 16.4566 131.688C17.42 132.877 18.7603 133.703 20.2562 134.028L117.861 132.923C118.32 133.021 118.787 133.07 119.256 133.068C119.939 133.069 120.618 132.966 121.27 132.761L179.259 134.204C180.628 133.777 181.822 132.92 182.665 131.76C183.508 130.601 183.955 129.2 183.939 127.767L183.287 27.4638Z" fill="white"/>
<path d="M183.287 27.4638C183.276 25.8858 182.708 24.3624 181.682 23.1636C180.656 21.9649 179.238 21.1683 177.681 20.9151L81.8549 5.17939C80.936 5.02727 79.9955 5.06905 79.0937 5.30208L56.6363 11.1089L43.751 14.4445L19.9717 20.5916C18.5362 20.9644 17.2651 21.8031 16.3575 22.9761C15.45 24.1492 14.9574 25.5902 14.957 27.0733V127.485C14.9642 129.016 15.4931 130.498 16.4566 131.688C17.42 132.877 18.7603 133.703 20.2562 134.028L117.861 132.923C118.32 133.021 118.787 133.07 119.256 133.068C119.939 133.069 120.618 132.966 121.27 132.761L179.259 134.204C180.628 133.777 181.822 132.92 182.665 131.76C183.508 130.601 183.955 129.2 183.939 127.767L183.287 27.4638ZM178.757 132.609L120.767 133.988C119.94 134.246 119.061 134.288 118.213 134.111L20.6021 132.394C19.4805 132.149 18.4758 131.53 17.7538 130.637C17.0318 129.745 16.6355 128.633 16.6305 127.485V27.0733C16.6312 26.0454 16.9471 25.0424 17.5356 24.1995C18.124 23.3567 18.9568 22.7146 19.9215 22.3598C20.0747 22.3023 20.2312 22.2539 20.3901 22.2148L45.5472 15.7108L60.4239 11.8619L79.512 6.92532C79.9214 6.81607 80.3434 6.76165 80.7671 6.76353C81.0399 6.76342 81.3123 6.78582 81.5815 6.83047L177.407 22.5662C178.178 22.6927 178.909 22.997 179.543 23.455C180.176 23.9129 180.694 24.5119 181.055 25.2047C181.417 25.907 181.608 26.6848 181.613 27.4749L182.266 127.778C182.278 128.853 181.943 129.904 181.311 130.774C180.679 131.644 179.783 132.287 178.757 132.609Z" fill="#262626"/>
<path d="M181.055 25.204C180.99 25.2468 180.919 25.2788 180.843 25.2988L152.657 32.9185L143.883 35.2892L118.927 42.033C118.855 42.0505 118.782 42.0599 118.709 42.061C118.659 42.06 118.608 42.0563 118.558 42.0498L17.9301 23.7035L17.5954 23.6421C17.3774 23.6012 17.1845 23.4756 17.0588 23.2928C16.9332 23.11 16.885 22.8849 16.9248 22.6667C16.9646 22.4485 17.0891 22.255 17.2713 22.1284C17.4534 22.0017 17.6782 21.9523 17.8966 21.991L19.9215 22.3591L118.676 40.3651L140.185 34.5529L152.217 31.3008L179.967 23.7983L180.408 23.6812C180.599 23.631 180.801 23.6492 180.979 23.7328C181.158 23.8164 181.301 23.96 181.384 24.1386C181.406 24.1812 181.423 24.2261 181.434 24.2724C181.48 24.4478 181.468 24.6334 181.4 24.8014C181.332 24.9693 181.211 25.1106 181.055 25.204Z" fill="#262626"/>
<path d="M119.544 133.262C119.085 133.262 118.711 132.892 118.707 135.255L117.87 44.0535C117.866 40.7693 118.237 40.3913 118.699 40.3869H118.707C119.166 40.3869 119.539 40.7562 119.544 44.0382L120.38 135.24C120.385 132.879 120.013 133.257 119.551 133.262H119.544Z" fill="#262626"/>
<path d="M152.893 134.319L143.882 134.414L140.184 34.5509L45.8195 15.7751C45.727 15.7587 45.6357 15.7364 45.5462 15.7082C44.8213 15.5018 44.188 15.0553 43.75 14.442L56.6353 11.1063L60.4229 11.8593L149.962 29.6701C150.433 29.7631 150.878 29.9568 151.267 30.2379C151.656 30.519 151.98 30.881 152.216 31.2989C152.494 31.7841 152.888 133.739 152.893 134.319Z" fill="#262626"/>
<g clip-path="url(#clip0_1433_3401)">
<rect width="40.625" height="40.625" transform="translate(0.0605469)" fill="white"/>
<path d="M20.3731 0C16.3556 0 12.4284 1.19131 9.08804 3.42327C5.74766 5.65524 3.14416 8.82762 1.60675 12.5392C0.069348 16.2509 -0.332907 20.335 0.450855 24.2753C1.23462 28.2155 3.1692 31.8349 6.00995 34.6756C8.8507 37.5164 12.47 39.4509 16.4103 40.2347C20.3505 41.0185 24.4347 40.6162 28.1463 39.0788C31.8579 37.5414 35.0303 34.9379 37.2623 31.5975C39.4942 28.2571 40.6856 24.3299 40.6856 20.3125C40.6799 14.927 38.538 9.76377 34.7299 5.95567C30.9218 2.14757 25.7585 0.00568715 20.3731 0ZM27.7285 25.457C27.8737 25.6022 27.9889 25.7745 28.0674 25.9642C28.146 26.1539 28.1864 26.3572 28.1864 26.5625C28.1864 26.7678 28.146 26.9711 28.0674 27.1608C27.9889 27.3505 27.8737 27.5228 27.7285 27.668C27.5834 27.8131 27.411 27.9283 27.2213 28.0069C27.0317 28.0854 26.8284 28.1259 26.6231 28.1259C26.4178 28.1259 26.2145 28.0854 26.0248 28.0069C25.8351 27.9283 25.6628 27.8131 25.5176 27.668L20.3731 22.5215L15.2285 27.668C15.0834 27.8131 14.911 27.9283 14.7213 28.0069C14.5317 28.0854 14.3284 28.1259 14.1231 28.1259C13.9178 28.1259 13.7145 28.0854 13.5248 28.0069C13.3351 27.9283 13.1628 27.8131 13.0176 27.668C12.8724 27.5228 12.7573 27.3505 12.6787 27.1608C12.6001 26.9711 12.5597 26.7678 12.5597 26.5625C12.5597 26.3572 12.6001 26.1539 12.6787 25.9642C12.7573 25.7745 12.8724 25.6022 13.0176 25.457L18.1641 20.3125L13.0176 15.168C12.7244 14.8748 12.5597 14.4771 12.5597 14.0625C12.5597 13.6479 12.7244 13.2502 13.0176 12.957C13.3108 12.6638 13.7084 12.4991 14.1231 12.4991C14.5377 12.4991 14.9353 12.6638 15.2285 12.957L20.3731 18.1035L25.5176 12.957C25.6628 12.8119 25.8351 12.6967 26.0248 12.6181C26.2145 12.5396 26.4178 12.4991 26.6231 12.4991C26.8284 12.4991 27.0317 12.5396 27.2213 12.6181C27.411 12.6967 27.5834 12.8119 27.7285 12.957C27.8737 13.1022 27.9889 13.2745 28.0674 13.4642C28.146 13.6539 28.1864 13.8572 28.1864 14.0625C28.1864 14.2678 28.146 14.4711 28.0674 14.6608C27.9889 14.8505 27.8737 15.0228 27.7285 15.168L22.582 20.3125L27.7285 25.457Z" fill="#D9333F"/>
</g>
<path d="M44.0237 60.4039C43.9468 60.4198 43.8683 60.4272 43.7897 60.4259L21.3698 60.0483C21.0895 60.0431 20.8227 59.9269 20.628 59.7252C20.4333 59.5235 20.3265 59.2528 20.3312 58.9725C20.3359 58.6922 20.4515 58.4251 20.6528 58.23C20.8541 58.0349 21.1246 57.9276 21.4049 57.9317L43.8249 58.3093C44.0851 58.3137 44.3347 58.4139 44.5258 58.5907C44.7169 58.7675 44.8361 59.0085 44.8607 59.2677C44.8853 59.5268 44.8136 59.786 44.6592 59.9956C44.5048 60.2052 44.2785 60.3505 44.0237 60.4039Z" fill="#262626"/>
<path d="M51.7835 72.3978C51.7065 72.4137 51.6281 72.4211 51.5495 72.4198L29.1295 72.0422C28.8492 72.037 28.5824 71.9208 28.3877 71.7191C28.193 71.5174 28.0863 71.2467 28.091 70.9663C28.0956 70.686 28.2113 70.419 28.4126 70.2239C28.6139 70.0288 28.8844 69.9215 29.1647 69.9256L51.5846 70.3032C51.8449 70.3076 52.0944 70.4078 52.2855 70.5846C52.4766 70.7614 52.5959 71.0024 52.6205 71.2616C52.6451 71.5207 52.5733 71.7799 52.4189 71.9895C52.2645 72.1991 52.0383 72.3444 51.7835 72.3978Z" fill="#262626"/>
<defs>
<clipPath id="clip0_1433_3401">
<rect width="40.625" height="40.625" fill="white" transform="translate(0.0605469)"/>
</clipPath>
</defs>
</svg>
