<svg width="190" height="140" viewBox="0 0 190 140" fill="none" xmlns="http://www.w3.org/2000/svg">
<path d="M188.643 32.2087C188.633 30.6307 188.064 29.1073 187.038 27.9086C186.012 26.7098 184.595 25.9132 183.037 25.66L87.2113 9.92433C86.2924 9.7722 85.3519 9.81399 84.4502 10.047L61.9928 15.8538L49.1075 19.1895L25.3281 25.3365C23.8927 25.7094 22.6215 26.548 21.714 27.7211C20.8065 28.8941 20.3139 30.3351 20.3135 31.8182V132.23C20.3206 133.761 20.8496 135.243 21.813 136.433C22.7764 137.622 24.1168 138.448 25.6126 138.773L123.218 137.668C123.676 137.766 124.144 137.815 124.612 137.813C125.295 137.814 125.974 137.711 126.626 137.506L184.616 138.949C185.984 138.522 187.179 137.665 188.022 136.505C188.865 135.346 189.311 133.945 189.296 132.512L188.643 32.2087Z" fill="white"/>
<path d="M188.643 32.2087C188.633 30.6307 188.064 29.1073 187.038 27.9086C186.012 26.7098 184.594 25.9132 183.037 25.66L87.2113 9.92433C86.2924 9.7722 85.3519 9.81399 84.4501 10.047L61.9928 15.8538L49.1075 19.1895L25.3281 25.3365C23.8927 25.7094 22.6215 26.548 21.714 27.7211C20.8065 28.8941 20.3139 30.3351 20.3135 31.8182V132.23C20.3206 133.761 20.8496 135.243 21.813 136.433C22.7764 137.622 24.1168 138.448 25.6126 138.773L123.218 137.668C123.676 137.766 124.144 137.815 124.612 137.813C125.295 137.814 125.974 137.71 126.626 137.506L184.616 138.949C185.984 138.522 187.178 137.665 188.022 136.505C188.865 135.346 189.311 133.945 189.296 132.512L188.643 32.2087ZM184.114 137.354L126.124 138.733C125.297 138.991 124.417 139.033 123.569 138.856L25.9585 137.139C24.837 136.894 23.8323 136.275 23.1102 135.382C22.3882 134.49 21.992 133.378 21.9869 132.23V31.8182C21.9876 30.7903 22.3035 29.7873 22.892 28.9445C23.4805 28.1017 24.3132 27.4596 25.278 27.1047C25.4312 27.0472 25.5876 26.9988 25.7465 26.9597L50.9036 20.4557L65.7803 16.6068L84.8685 11.6703C85.2778 11.561 85.6999 11.5066 86.1235 11.5085C86.3964 11.5084 86.6688 11.5307 86.9379 11.5754L182.764 27.3111C183.535 27.4377 184.266 27.742 184.899 28.1999C185.532 28.6578 186.05 29.2569 186.412 29.9496C186.774 30.6519 186.965 31.4297 186.97 32.2198L187.622 132.523C187.634 133.598 187.299 134.649 186.667 135.519C186.035 136.389 185.14 137.032 184.114 137.354Z" fill="#262626"/>
<path d="M186.412 29.949C186.347 29.9917 186.275 30.0237 186.2 30.0437L158.014 37.6634L149.239 40.0341L124.283 46.7779C124.212 46.7955 124.139 46.8049 124.066 46.8059C124.015 46.8049 123.965 46.8012 123.915 46.7947L23.2865 28.4484L22.9518 28.387C22.7339 28.3461 22.5409 28.2205 22.4153 28.0377C22.2896 27.855 22.2414 27.6299 22.2812 27.4117C22.321 27.1935 22.4456 26.9999 22.6277 26.8733C22.8098 26.7467 23.0347 26.6973 23.2531 26.7359L25.2779 27.1041L124.032 45.1101L145.541 39.2978L157.573 36.0457L185.324 28.5433L185.765 28.4261C185.955 28.3759 186.157 28.3942 186.336 28.4778C186.514 28.5613 186.657 28.705 186.741 28.8835C186.762 28.9262 186.779 28.971 186.791 29.0173C186.837 29.1928 186.825 29.3784 186.756 29.5463C186.688 29.7143 186.567 29.8555 186.412 29.949Z" fill="#262626"/>
<path d="M124.9 138.007C124.441 138.007 124.068 137.637 124.063 140L123.227 48.7984C123.222 45.5142 123.594 45.1362 124.056 45.1318H124.063C124.522 45.1318 124.896 45.5012 124.9 48.7832L125.737 139.985C125.741 137.624 125.37 138.002 124.908 138.007H124.9Z" fill="#262626"/>
<path d="M158.25 139.064L149.238 139.159L145.54 39.2959L51.1759 20.52C51.0835 20.5037 50.9922 20.4813 50.9026 20.4531C50.1777 20.2467 49.5444 19.8003 49.1064 19.1869L61.9918 15.8512L65.7793 16.6042L155.318 34.415C155.789 34.508 156.234 34.7017 156.623 34.9828C157.012 35.264 157.336 35.6259 157.572 36.0438C157.851 36.5291 158.244 138.484 158.25 139.064Z" fill="#262626"/>
<path d="M25.971 50.5338C39.9256 50.5338 51.2379 39.2214 51.2379 25.2669C51.2379 11.3124 39.9256 0 25.971 0C12.0165 0 0.704102 11.3124 0.704102 25.2669C0.704102 39.2214 12.0165 50.5338 25.971 50.5338Z" fill="#0F62FE"/>
<path d="M22.5228 38.4161C22.0865 38.4161 21.6562 38.3145 21.266 38.1193C20.8757 37.9241 20.5363 37.6407 20.2746 37.2916L13.3814 28.1005C12.9342 27.5042 12.7422 26.7546 12.8476 26.0167C12.953 25.2788 13.3473 24.6131 13.9436 24.1658C14.54 23.7186 15.2895 23.5266 16.0274 23.632C16.7653 23.7375 17.4311 24.1317 17.8784 24.728L22.3881 30.7406L33.9709 13.3667C34.175 13.0583 34.4381 12.7933 34.7449 12.5868C35.0517 12.3803 35.3963 12.2364 35.7588 12.1633C36.1214 12.0902 36.4948 12.0894 36.8576 12.1609C37.2205 12.2323 37.5657 12.3747 37.8734 12.5799C38.1811 12.785 38.4453 13.0489 38.6509 13.3564C38.8564 13.6638 38.9993 14.0088 39.0712 14.3716C39.1432 14.7344 39.1429 15.1077 39.0703 15.4704C38.9976 15.833 38.8541 16.1778 38.648 16.4848L24.8617 37.1644C24.6123 37.5384 24.2769 37.8472 23.8835 38.0648C23.4902 38.2824 23.0504 38.4026 22.601 38.4152C22.575 38.4157 22.5489 38.4161 22.5228 38.4161Z" fill="white"/>
<path d="M49.3802 65.1488C49.3032 65.1647 49.2247 65.1721 49.1462 65.1708L26.7262 64.7933C26.4459 64.788 26.1791 64.6718 25.9844 64.4701C25.7897 64.2684 25.683 63.9977 25.6876 63.7174C25.6923 63.4371 25.808 63.1701 26.0093 62.975C26.2106 62.7798 26.481 62.6726 26.7613 62.6767L49.1813 63.0542C49.4416 63.0586 49.6911 63.1588 49.8822 63.3356C50.0733 63.5124 50.1925 63.7534 50.2171 64.0126C50.2417 64.2718 50.17 64.5309 50.0156 64.7405C49.8612 64.9501 49.635 65.0955 49.3802 65.1488Z" fill="#262626"/>
<path d="M57.1399 77.1427C57.063 77.1586 56.9845 77.166 56.9059 77.1647L34.486 76.7872C34.2057 76.7819 33.9389 76.6657 33.7442 76.464C33.5495 76.2623 33.4428 75.9916 33.4474 75.7113C33.4521 75.431 33.5677 75.164 33.769 74.9689C33.9703 74.7737 34.2408 74.6665 34.5211 74.6706L56.9411 75.0481C57.2014 75.0525 57.4509 75.1527 57.642 75.3295C57.8331 75.5063 57.9523 75.7473 57.9769 76.0065C58.0015 76.2657 57.9298 76.5248 57.7754 76.7344C57.621 76.944 57.3947 77.0894 57.1399 77.1427Z" fill="#262626"/>
</svg>
