<svg width="22" height="19" viewBox="0 0 22 19" fill="none" xmlns="http://www.w3.org/2000/svg">
<path d="M21.5234 6.10484C21.525 6.81907 21.385 7.52653 21.1114 8.1863C20.8379 8.84606 20.4362 9.44504 19.9297 9.94859L11.5578 18.4442C11.488 18.5151 11.4048 18.5714 11.3131 18.6098C11.2213 18.6482 11.1229 18.668 11.0234 18.668C10.924 18.668 10.8255 18.6482 10.7338 18.6098C10.642 18.5714 10.5588 18.5151 10.4891 18.4442L2.11718 9.94859C1.09651 8.92916 0.522609 7.54603 0.52173 6.10346C0.52085 4.6609 1.09306 3.27707 2.11249 2.2564C3.13192 1.23573 4.51505 0.66183 5.95761 0.660951C7.40018 0.660072 8.78401 1.23229 9.80468 2.25171L11.0234 3.39077L12.2506 2.24796C13.0123 1.49008 13.9814 0.974841 15.0357 0.767303C16.0899 0.559765 17.182 0.669229 18.1741 1.08187C19.1662 1.49452 20.0138 2.19185 20.6099 3.08582C21.206 3.9798 21.5239 5.03035 21.5234 6.10484Z" fill="#FF4343"/>
</svg>
