<svg width="13" height="13" viewBox="0 0 13 13" fill="none" xmlns="http://www.w3.org/2000/svg">
<path d="M12.2069 3.08563L9.41438 0.292501C9.32152 0.199618 9.21127 0.125938 9.08993 0.0756693C8.96859 0.0254003 8.83853 -0.000473022 8.70719 -0.000473022C8.57585 -0.000473022 8.4458 0.0254003 8.32446 0.0756693C8.20312 0.125938 8.09287 0.199618 8 0.292501L0.29313 8C0.199867 8.09252 0.125926 8.20266 0.0756045 8.32401C0.025283 8.44536 -0.000414649 8.57551 5.05934e-06 8.70687V11.5C5.05934e-06 11.7652 0.105362 12.0196 0.292898 12.2071C0.480435 12.3946 0.734789 12.5 1.00001 12.5H3.79313C3.9245 12.5004 4.05464 12.4747 4.17599 12.4244C4.29735 12.3741 4.40748 12.3001 4.50001 12.2069L12.2069 4.5C12.2998 4.40714 12.3734 4.29689 12.4237 4.17555C12.474 4.05421 12.4999 3.92415 12.4999 3.79281C12.4999 3.66147 12.474 3.53142 12.4237 3.41008C12.3734 3.28874 12.2998 3.17849 12.2069 3.08563ZM3.79313 11.5H1.00001V8.70687L6.50001 3.20688L9.29313 6L3.79313 11.5ZM10 5.2925L7.20688 2.5L8.70688 1L11.5 3.7925L10 5.2925Z" fill="#0F62FE"/>
</svg>
