<svg width="22" height="19" viewBox="0 0 22 19" fill="none" xmlns="http://www.w3.org/2000/svg">
<path d="M19.9098 2.34377C18.8908 1.32738 17.5109 0.755816 16.0717 0.754059C14.6325 0.752302 13.2512 1.3205 12.2298 2.33439L11.0035 3.47345L9.77634 2.33064C8.75518 1.31233 7.37132 0.741392 5.92919 0.743414C4.48706 0.745435 3.10481 1.32026 2.0865 2.34142C1.06819 3.36259 0.497251 4.74645 0.499273 6.18858C0.501295 7.6307 1.07612 9.01296 2.09728 10.0313L10.4738 18.5306C10.5436 18.6015 10.6268 18.6578 10.7186 18.6962C10.8103 18.7346 10.9088 18.7544 11.0082 18.7544C11.1077 18.7544 11.2061 18.7346 11.2979 18.6962C11.3896 18.6578 11.4728 18.6015 11.5426 18.5306L19.9098 10.0313C20.9288 9.01163 21.5012 7.62907 21.5012 6.18752C21.5012 4.74596 20.9288 3.3634 19.9098 2.34377ZM18.8457 8.97752L11.0035 16.9313L3.15666 8.97002C2.4182 8.23155 2.00333 7.22999 2.00333 6.18564C2.00333 5.1413 2.4182 4.13973 3.15666 3.40127C3.89512 2.6628 4.89669 2.24794 5.94103 2.24794C6.98538 2.24794 7.98694 2.6628 8.72541 3.40127L8.74416 3.42002L10.4926 5.04658C10.6314 5.17574 10.8139 5.24754 11.0035 5.24754C11.1931 5.24754 11.3757 5.17574 11.5145 5.04658L13.2629 3.42002L13.2817 3.40127C14.0206 2.6633 15.0225 2.24911 16.0668 2.24982C17.1112 2.25052 18.1124 2.66606 18.8504 3.40502C19.5884 4.14398 20.0026 5.14582 20.0019 6.19017C20.0012 7.23451 19.5856 8.2358 18.8467 8.97377L18.8457 8.97752Z" fill="#1A1A1A"/>
</svg>
