<svg width="33" height="20" viewBox="0 0 33 20" fill="none" xmlns="http://www.w3.org/2000/svg">
<path d="M20.7623 2.1377H12.0123V17.8617H20.7623V2.1377Z" fill="#FF5F00"/>
<path d="M12.5681 9.99951C12.5667 8.48518 12.9098 6.99038 13.5716 5.62827C14.2333 4.26616 15.1962 3.07246 16.3875 2.13752C14.9123 0.97797 13.1406 0.256867 11.2749 0.0566245C9.40928 -0.143618 7.52492 0.185073 5.83725 1.00514C4.14957 1.82522 2.72666 3.10358 1.73117 4.6941C0.735674 6.28462 0.207764 8.12314 0.207764 9.99951C0.207764 11.8759 0.735674 13.7144 1.73117 15.3049C2.72666 16.8954 4.14957 18.1738 5.83725 18.9939C7.52492 19.814 9.40928 20.1426 11.2749 19.9424C13.1406 19.7422 14.9123 19.0211 16.3875 17.8615C15.1962 16.9266 14.2333 15.7329 13.5716 14.3707C12.9099 13.0086 12.5667 11.5138 12.5681 9.99951Z" fill="#EB001B"/>
<path d="M32.5667 9.99951C32.5668 11.8759 32.0389 13.7144 31.0435 15.3049C30.0481 16.8954 28.6252 18.1738 26.9376 18.9939C25.2499 19.8139 23.3656 20.1426 21.5 19.9424C19.6343 19.7422 17.8627 19.0211 16.3875 17.8615C17.5777 16.9256 18.5399 15.7317 19.2015 14.3698C19.8631 13.0079 20.2069 11.5136 20.2069 9.99951C20.2069 8.48542 19.8631 6.99108 19.2015 5.62919C18.5399 4.2673 17.5777 3.0734 16.3875 2.13751C17.8627 0.977966 19.6343 0.256862 21.5 0.0566219C23.3656 -0.143618 25.2499 0.185088 26.9376 1.00517C28.6252 1.82525 30.0481 3.10361 31.0435 4.69413C32.0389 6.28466 32.5668 8.12317 32.5667 9.99951Z" fill="#F79E1B"/>
<path d="M31.6124 16.1962V15.8743H31.7422V15.8087H31.4116V15.8743H31.5415V16.1962H31.6124ZM32.2542 16.1962V15.8081H32.1529L32.0363 16.0751L31.9197 15.8081H31.8183V16.1962H31.8899V15.9035L31.9992 16.1559H32.0734L32.1827 15.9028V16.1962H32.2542Z" fill="#F79E1B"/>
</svg>
