<svg width="18" height="14" viewBox="0 0 18 14" fill="none" xmlns="http://www.w3.org/2000/svg">
<path d="M16.5 0.737305H1.5C1.33424 0.737305 1.17527 0.803153 1.05806 0.920363C0.940848 1.03757 0.875 1.19654 0.875 1.3623V11.9873C0.875 12.3188 1.0067 12.6368 1.24112 12.8712C1.47554 13.1056 1.79348 13.2373 2.125 13.2373H15.875C16.2065 13.2373 16.5245 13.1056 16.7589 12.8712C16.9933 12.6368 17.125 12.3188 17.125 11.9873V1.3623C17.125 1.19654 17.0592 1.03757 16.9419 0.920363C16.8247 0.803153 16.6658 0.737305 16.5 0.737305ZM14.893 1.9873L9 7.38965L3.10703 1.9873H14.893ZM15.875 11.9873H2.125V2.7834L8.57734 8.69824C8.69265 8.80409 8.84348 8.86282 9 8.86282C9.15652 8.86282 9.30735 8.80409 9.42266 8.69824L15.875 2.7834V11.9873Z" fill="#9194A6"/>
</svg>
