<svg width="17" height="17" viewBox="0 0 17 17" fill="none" xmlns="http://www.w3.org/2000/svg">
<path d="M15.3727 11.2755L11.6922 9.62631L11.682 9.62162C11.491 9.5399 11.2825 9.5071 11.0756 9.5262C10.8687 9.5453 10.6698 9.61568 10.4969 9.73099C10.4765 9.74444 10.457 9.75905 10.4383 9.77474L8.53673 11.3958C7.33204 10.8107 6.08829 9.57631 5.50313 8.38724L7.12657 6.45678C7.14219 6.43724 7.15704 6.41771 7.1711 6.39662C7.28394 6.2242 7.35239 6.02656 7.37039 5.82129C7.38838 5.61601 7.35534 5.40948 7.27423 5.22006V5.21068L5.62032 1.52396C5.51309 1.27651 5.3287 1.07038 5.09468 0.936337C4.86067 0.802293 4.58958 0.747526 4.32188 0.780213C3.26326 0.919515 2.29155 1.43941 1.58824 2.24279C0.884919 3.04617 0.498093 4.0781 0.500007 5.14584C0.500007 11.349 5.54688 16.3958 11.75 16.3958C12.8177 16.3978 13.8497 16.0109 14.6531 15.3076C15.4564 14.6043 15.9763 13.6326 16.1156 12.574C16.1484 12.3064 16.0937 12.0353 15.9598 11.8013C15.8259 11.5673 15.62 11.3829 15.3727 11.2755ZM11.75 15.1458C9.09873 15.1429 6.55687 14.0884 4.68214 12.2137C2.8074 10.339 1.7529 7.79711 1.75001 5.14584C1.74707 4.38294 2.02192 3.64505 2.52324 3.06998C3.02456 2.49491 3.71806 2.12198 4.47423 2.02084C4.47392 2.02396 4.47392 2.0271 4.47423 2.03021L6.11485 5.70209L4.50001 7.6349C4.48362 7.65376 4.46873 7.67387 4.45548 7.69506C4.33791 7.87546 4.26894 8.08318 4.25525 8.29807C4.24157 8.51297 4.28362 8.72776 4.37735 8.92162C5.08516 10.3693 6.54376 11.8169 8.00704 12.524C8.20232 12.6168 8.41835 12.6574 8.63403 12.6418C8.8497 12.6262 9.05763 12.5549 9.23751 12.4349C9.25757 12.4214 9.27687 12.4068 9.29532 12.3912L11.1945 10.7708L14.8664 12.4154C14.8664 12.4154 14.8727 12.4154 14.875 12.4154C14.7751 13.1726 14.4027 13.8675 13.8275 14.3701C13.2524 14.8726 12.5138 15.1484 11.75 15.1458Z" fill="#9194A6"/>
</svg>
