<svg width="12" height="22" viewBox="0 0 12 22" fill="none" xmlns="http://www.w3.org/2000/svg">
<path d="M11.7076 11.7075L1.70757 21.7075C1.61466 21.8004 1.50436 21.8741 1.38296 21.9244C1.26157 21.9747 1.13146 22.0006 1.00007 22.0006C0.868673 22.0006 0.738564 21.9747 0.617171 21.9244C0.495778 21.8741 0.385477 21.8004 0.292567 21.7075C0.199657 21.6146 0.125957 21.5043 0.0756741 21.3829C0.0253914 21.2615 -0.000488281 21.1314 -0.000488281 21C-0.000488281 20.8686 0.0253914 20.7385 0.0756741 20.6171C0.125957 20.4957 0.199657 20.3854 0.292567 20.2925L9.58632 11L0.292567 1.70751C0.104927 1.51987 -0.000488283 1.26537 -0.000488281 1.00001C-0.000488279 0.734643 0.104927 0.480147 0.292567 0.292507C0.480208 0.104866 0.734704 -0.000549314 1.00007 -0.000549316C1.26543 -0.000549318 1.51993 0.104866 1.70757 0.292507L11.7076 10.2925C11.8005 10.3854 11.8743 10.4957 11.9246 10.6171C11.975 10.7385 12.0009 10.8686 12.0009 11C12.0009 11.1314 11.975 11.2615 11.9246 11.3829C11.8743 11.5043 11.8005 11.6146 11.7076 11.7075Z" fill="#2A2A2A"/>
</svg>
